<svg width="1024" height="1024" viewBox="0 0 1024 1024" fill="none" xmlns="http://www.w3.org/2000/svg">
<path d="M357.009 0H666.991C769.792 0 821.18 0 876.518 17.4933C936.934 39.4837 984.516 87.0656 1006.51 147.482C1024 202.812 1024 254.217 1024 357.009V666.991C1024 769.792 1024 821.18 1006.51 876.518C984.516 936.934 936.934 984.516 876.518 1006.5C821.18 1024 769.792 1024 666.991 1024H357.009C254.208 1024 202.812 1024 147.482 1006.5C87.0656 984.516 39.4837 936.934 17.4933 876.518C0 821.18 0 769.792 0 666.991V357.009C0 254.217 0 202.812 17.4933 147.482C39.4837 87.0656 87.0656 39.4837 147.482 17.4933C202.812 0 254.208 0 357.009 0Z" fill="#242424"/>
<path d="M565.457 821.729C558.766 821.729 552.075 820.565 545.675 818.238C523.857 810.093 509.893 789.729 509.893 766.456V578.82H441.821C419.712 578.82 400.511 566.311 391.493 546.238C382.475 526.165 385.966 503.474 400.511 486.893L620.73 236.711C636.148 219.256 660.002 213.147 681.821 221.584C703.639 229.729 717.602 250.093 717.602 273.365V461.002H785.675C807.784 461.002 826.984 473.511 836.002 493.584C845.02 513.656 841.529 536.347 826.984 552.929L606.766 803.111C596.002 815.329 580.875 821.729 565.457 821.729Z" fill="#E9E6DF"/>
<path d="M417.992 308.842H214.348C202.42 308.842 192.529 298.951 192.529 287.023C192.529 275.096 202.42 265.204 214.348 265.204H417.992C429.919 265.204 439.811 275.096 439.811 287.023C439.811 298.951 429.919 308.842 417.992 308.842Z" fill="#E9E6DF"/>
<path d="M388.9 774.324H214.348C202.42 774.324 192.529 764.432 192.529 752.505C192.529 740.577 202.42 730.686 214.348 730.686H388.9C400.827 730.686 410.719 740.577 410.719 752.505C410.719 764.432 400.827 774.324 388.9 774.324Z" fill="#E9E6DF"/>
<path d="M301.627 541.588H214.348C202.42 541.588 192.529 531.696 192.529 519.768C192.529 507.84 202.42 497.949 214.348 497.949H301.627C313.555 497.949 323.446 507.84 323.446 519.768C323.446 531.696 313.555 541.588 301.627 541.588Z" fill="#E9E6DF"/>
</svg>
